<?xml version="1.0" encoding="utf-8"?>
<!-- Generator: Adobe Illustrator 16.0.0, SVG Export Plug-In . SVG Version: 6.00 Build 0)  -->
<!DOCTYPE svg PUBLIC "-//W3C//DTD SVG 1.1//EN" "http://www.w3.org/Graphics/SVG/1.1/DTD/svg11.dtd">
<svg version="1.1" xmlns="http://www.w3.org/2000/svg" xmlns:xlink="http://www.w3.org/1999/xlink" x="0px" y="0px"
	 width="117.167px" height="100px" viewBox="693.5 58.917 117.167 100" enable-background="new 693.5 58.917 117.167 100"
	 xml:space="preserve">
<g id="svg2" xmlns:dc="http://purl.org/dc/elements/1.1/" xmlns:cc="http://creativecommons.org/ns#" xmlns:rdf="http://www.w3.org/1999/02/22-rdf-syntax-ns#" xmlns:svg="http://www.w3.org/2000/svg">
	<g>
		<defs>
			<path id="path5882" d="M-128.253,687.275c7.031-10.713,24.995-13.693,27.362-15.469c3.363-2.521,5.022-5.742,0.539-10.134
				c-18.233-17.862-40.078-14.047-60.116-21.069c-21.019-15.057-44.854-24.156-78.987-20.251
				c-40.784-2.246-94.398,4.45-113.25,5.868c-33.048,2.484-76.931,26.879-92.999,22.035c-7.366,10.507-9.707,20.728,1.525,30.173
				c25.357-3.762,49.858,21.1,95.311,25.647c19.656,1.968,36.077,7.329,58.431,8.566c28.064,1.554,62.515,0.331,91.017-1.022
				c9.33,0.516,18.741,1.31,26.592-3.301c14.243,2.348,20.145-1.319,34.288-5.717c6.766-2.104,13.475-4.859,19.944-10.596
				c1.952-0.299,3.867-0.916,5.982-0.86c6.625,0.174,13.446,1.655,14.993-3.203c0.914-2.87-1.038-3.43-4.374-5.281
				c-3.38-1.879-7.204-4.129-13.826-2.482L-128.253,687.275z"/>
		</defs>
		<use xlink:href="#path5882"  overflow="visible" fill="#E21A1A"/>
		<clipPath id="path5882_1_">
			<use xlink:href="#path5882"  overflow="visible"/>
		</clipPath>
	</g>
	<g id="Field" transform="matrix(0.22804124,0,0,0.22804124,-2895.9726,1047.3873)">
	</g>
	<g id="Trick" transform="matrix(0.22804124,0,0,0.22804124,-2895.9726,1047.3873)">
	</g>
	<g id="Border" transform="matrix(0.22804124,0,0,0.22804124,-2895.9726,1047.3873)">
	</g>
	<g id="Field-5" transform="matrix(0.22804124,0,0,0.22804124,-2913.7099,1023.4866)">
	</g>
	<g id="Trick-0" transform="matrix(0.22804124,0,0,0.22804124,-2913.7099,1023.4866)">
	</g>
	<g id="Border-7" transform="matrix(0.22804124,0,0,0.22804124,-2913.7099,1023.4866)">
	</g>
	<g id="Field-3" transform="matrix(0.22804124,0,0,0.22804124,-2913.7438,1046.6708)">
	</g>
	<g id="Border-5" transform="matrix(0.22804124,0,0,0.22804124,-2913.7438,1046.6708)">
	</g>
	<g id="use3104" transform="matrix(0.22804124,0,0,0.22804124,-2913.6939,1046.6846)">
	</g>
	<g id="Trick-4" transform="matrix(0.22804124,0,0,0.22804124,-2913.5619,1046.6344)">
	</g>
	<g id="Field-2" transform="matrix(0.22804124,0,0,0.22804124,-2913.7099,1069.855)">
	</g>
	<g id="Trick-2" transform="matrix(0.22804124,0,0,0.22804124,-2913.7099,1069.855)">
	</g>
	<g id="Border-1" transform="matrix(0.22804124,0,0,0.22804124,-2913.7099,1069.855)">
	</g>
	<g id="Field-36" transform="matrix(0.22804124,0,0,0.22804124,-2913.7099,1093.0392)">
	</g>
	<g id="Trick-08" transform="matrix(0.22804124,0,0,0.22804124,-2913.7099,1093.0392)">
	</g>
	<g id="Border-8" transform="matrix(0.22804124,0,0,0.22804124,-2913.7099,1093.0392)">
	</g>
	<g id="Field-9" transform="matrix(0.22804124,0,0,0.22804124,-2913.7099,1116.2234)">
	</g>
	<g id="Trick-8" transform="matrix(0.22804124,0,0,0.22804124,-2913.7099,1116.2234)">
	</g>
	<g id="Border-4" transform="matrix(0.22804124,0,0,0.22804124,-2913.7099,1116.2234)">
	</g>
	<g id="Field-1" transform="matrix(0.22804124,0,0,0.22804124,-2895.6499,1114.2527)">
	</g>
	<g id="Trick-5" transform="matrix(0.22804124,0,0,0.22804124,-2895.6499,1114.2527)">
	</g>
	<g id="Border-9" transform="matrix(0.22804124,0,0,0.22804124,-2895.6499,1114.2527)">
	</g>
	<g id="Field-17" transform="matrix(0.22804124,0,0,0.22804124,-2895.005,1091.9645)">
	</g>
	<g id="Trick-1" transform="matrix(0.22804124,0,0,0.22804124,-2895.005,1091.9645)">
	</g>
	<g id="Border-99" transform="matrix(0.22804124,0,0,0.22804124,-2895.005,1091.9645)">
	</g>
	<g id="Field-53" transform="matrix(0.22804124,0,0,0.22804124,-2934.3499,1048.3914)">
	</g>
	<g id="Trick-12" transform="matrix(0.22804124,0,0,0.22804124,-2934.3499,1048.3914)">
	</g>
	<g id="Border-12" transform="matrix(0.22804124,0,0,0.22804124,-2934.3499,1048.3914)">
	</g>
	<g id="Field-94" transform="matrix(0.22804124,0,0,0.22804124,-2894.0374,1069.6406)">
	</g>
	<g id="Trick-09" transform="matrix(0.22804124,0,0,0.22804124,-2894.0374,1069.6406)">
	</g>
	<g id="Border-51" transform="matrix(0.22804124,0,0,0.22804124,-2894.0374,1069.6406)">
	</g>
	<g id="Field-21" transform="matrix(0.22804124,0,0,0.22804124,-2911.4525,1140.8414)">
	</g>
	<g id="Trick-46" transform="matrix(0.22804124,0,0,0.22804124,-2911.4525,1140.8414)">
	</g>
	<g id="Border-0" transform="matrix(0.22804124,0,0,0.22804124,-2911.4525,1140.8414)">
	</g>
	<ellipse id="ellipse5679" fill="#191919" cx="-26.459" cy="882.68" rx="0" ry="0"/>
	<ellipse id="ellipse5683" fill="#FFFFFF" cx="-26.459" cy="882.571" rx="0" ry="0"/>
	<ellipse id="ellipse5749" fill="#191919" cx="-11.476" cy="882.354" rx="0" ry="0"/>
	<ellipse id="ellipse5753" fill="#FFFFFF" cx="-11.476" cy="882.354" rx="0" ry="0"/>
	<ellipse id="ellipse5819" fill="#191919" cx="-19.076" cy="895.709" rx="0" ry="0"/>
	<ellipse id="ellipse5823" fill="#FFFFFF" cx="-19.076" cy="895.601" rx="0" ry="0"/>
	<g id="Field-23" transform="matrix(0.22804124,0,0,0.22804124,-1131.6637,961.2242899999996)">
	</g>
	<g id="Trick-18" transform="matrix(0.22804124,0,0,0.22804124,-1131.6637,961.2242899999996)">
	</g>
	<g id="Border-74" transform="matrix(0.22804124,0,0,0.22804124,-1131.6637,961.2242899999996)">
	</g>
	<g id="Field-5-6" transform="matrix(0.22804124,0,0,0.22804124,-1149.4009,937.32361)">
	</g>
	<g id="Trick-0-3" transform="matrix(0.22804124,0,0,0.22804124,-1149.4009,937.32361)">
	</g>
	<g id="Border-7-8" transform="matrix(0.22804124,0,0,0.22804124,-1149.4009,937.32361)">
	</g>
	<g id="Field-3-5" transform="matrix(0.22804124,0,0,0.22804124,-1149.4349,960.5077599999998)">
	</g>
	<g id="Border-5-0" transform="matrix(0.22804124,0,0,0.22804124,-1149.4349,960.5077599999998)">
	</g>
	<g id="use3104-1" transform="matrix(0.22804124,0,0,0.22804124,-1149.3849,960.5215799999997)">
	</g>
	<g id="Trick-4-2" transform="matrix(0.22804124,0,0,0.22804124,-1149.2529,960.4713699999997)">
	</g>
	<g id="Field-2-4" transform="matrix(0.22804124,0,0,0.22804124,-1149.4009,983.692)">
	</g>
	<g id="Trick-2-8" transform="matrix(0.22804124,0,0,0.22804124,-1149.4009,983.692)">
	</g>
	<g id="Border-1-5" transform="matrix(0.22804124,0,0,0.22804124,-1149.4009,983.692)">
	</g>
	<g id="Field-36-2" transform="matrix(0.22804124,0,0,0.22804124,-1149.4009,1006.8762)">
	</g>
	<g id="Trick-08-5" transform="matrix(0.22804124,0,0,0.22804124,-1149.4009,1006.8762)">
	</g>
	<g id="Border-8-2" transform="matrix(0.22804124,0,0,0.22804124,-1149.4009,1006.8762)">
	</g>
	<g id="Field-9-9" transform="matrix(0.22804124,0,0,0.22804124,-1149.4009,1030.0603)">
	</g>
	<g id="Trick-8-1" transform="matrix(0.22804124,0,0,0.22804124,-1149.4009,1030.0603)">
	</g>
	<g id="Border-4-3" transform="matrix(0.22804124,0,0,0.22804124,-1149.4009,1030.0603)">
	</g>
	<g id="Field-1-1" transform="matrix(0.22804124,0,0,0.22804124,-1131.341,1028.0897)">
	</g>
	<g id="Trick-5-5" transform="matrix(0.22804124,0,0,0.22804124,-1131.341,1028.0897)">
	</g>
	<g id="Border-9-2" transform="matrix(0.22804124,0,0,0.22804124,-1131.341,1028.0897)">
	</g>
	<g id="Field-17-9" transform="matrix(0.22804124,0,0,0.22804124,-1130.6961,1005.8015)">
	</g>
	<g id="Trick-1-4" transform="matrix(0.22804124,0,0,0.22804124,-1130.6961,1005.8015)">
	</g>
	<g id="Border-99-4" transform="matrix(0.22804124,0,0,0.22804124,-1130.6961,1005.8015)">
	</g>
	<g id="Field-53-0" transform="matrix(0.22804124,0,0,0.22804124,-1170.0409,962.22833)">
	</g>
	<g id="Trick-12-7" transform="matrix(0.22804124,0,0,0.22804124,-1170.0409,962.22833)">
	</g>
	<g id="Border-12-4" transform="matrix(0.22804124,0,0,0.22804124,-1170.0409,962.22833)">
	</g>
	<g id="Field-94-7" transform="matrix(0.22804124,0,0,0.22804124,-1129.7285,983.4776)">
	</g>
	<g id="Trick-09-9" transform="matrix(0.22804124,0,0,0.22804124,-1129.7285,983.4776)">
	</g>
	<g id="Border-51-0" transform="matrix(0.22804124,0,0,0.22804124,-1129.7285,983.4776)">
	</g>
	<g id="Field-21-2" transform="matrix(0.22804124,0,0,0.22804124,-1147.1435,1054.6784)">
	</g>
	<g id="Trick-46-2" transform="matrix(0.22804124,0,0,0.22804124,-1147.1435,1054.6784)">
	</g>
	<g id="Border-0-6" transform="matrix(0.22804124,0,0,0.22804124,-1147.1435,1054.6784)">
	</g>
	<path id="path4156" fill="#FFFFFF" d="M-539.92,590.5"/>
	<g id="Field-20" transform="matrix(0.22804124,0,0,0.22804124,-2765.2418,1549.5065)">
	</g>
	<g id="Trick-3" transform="matrix(0.22804124,0,0,0.22804124,-2765.2418,1549.5065)">
	</g>
	<g id="Border-04" transform="matrix(0.22804124,0,0,0.22804124,-2765.2418,1549.5065)">
	</g>
	<g id="Field-5-0" transform="matrix(0.22804124,0,0,0.22804124,-2782.9791,1525.6059)">
	</g>
	<g id="Trick-0-0" transform="matrix(0.22804124,0,0,0.22804124,-2782.9791,1525.6059)">
	</g>
	<g id="Border-7-5" transform="matrix(0.22804124,0,0,0.22804124,-2782.9791,1525.6059)">
	</g>
	<g id="Field-3-57" transform="matrix(0.22804124,0,0,0.22804124,-2783.013,1548.79)">
	</g>
	<g id="Border-5-03" transform="matrix(0.22804124,0,0,0.22804124,-2783.013,1548.79)">
	</g>
	<g id="use3104-8" transform="matrix(0.22804124,0,0,0.22804124,-2782.9631,1548.8039)">
	</g>
	<g id="Trick-4-6" transform="matrix(0.22804124,0,0,0.22804124,-2782.8311,1548.7536)">
	</g>
	<g id="Field-2-9" transform="matrix(0.22804124,0,0,0.22804124,-2782.9791,1571.9743)">
	</g>
	<g id="Trick-2-1" transform="matrix(0.22804124,0,0,0.22804124,-2782.9791,1571.9743)">
	</g>
	<g id="Border-1-0" transform="matrix(0.22804124,0,0,0.22804124,-2782.9791,1571.9743)">
	</g>
	<g id="Field-36-0" transform="matrix(0.22804124,0,0,0.22804124,-2782.9791,1595.1584)">
	</g>
	<g id="Trick-08-58" transform="matrix(0.22804124,0,0,0.22804124,-2782.9791,1595.1584)">
	</g>
	<g id="Border-8-5" transform="matrix(0.22804124,0,0,0.22804124,-2782.9791,1595.1584)">
	</g>
	<g id="Field-9-7" transform="matrix(0.22804124,0,0,0.22804124,-2782.9791,1618.3426)">
	</g>
	<g id="Trick-8-9" transform="matrix(0.22804124,0,0,0.22804124,-2782.9791,1618.3426)">
	</g>
	<g id="Border-4-6" transform="matrix(0.22804124,0,0,0.22804124,-2782.9791,1618.3426)">
	</g>
	<g id="Field-1-9" transform="matrix(0.22804124,0,0,0.22804124,-2764.9191,1616.3719)">
	</g>
	<g id="Trick-5-6" transform="matrix(0.22804124,0,0,0.22804124,-2764.9191,1616.3719)">
	</g>
	<g id="Border-9-28" transform="matrix(0.22804124,0,0,0.22804124,-2764.9191,1616.3719)">
	</g>
	<g id="Field-17-8" transform="matrix(0.22804124,0,0,0.22804124,-2764.2742,1594.0837)">
	</g>
	<g id="Trick-1-43" transform="matrix(0.22804124,0,0,0.22804124,-2764.2742,1594.0837)">
	</g>
	<g id="Border-99-2" transform="matrix(0.22804124,0,0,0.22804124,-2764.2742,1594.0837)">
	</g>
	<g id="Field-53-6" transform="matrix(0.22804124,0,0,0.22804124,-2803.6191,1550.5106)">
	</g>
	<g id="Trick-12-8" transform="matrix(0.22804124,0,0,0.22804124,-2803.6191,1550.5106)">
	</g>
	<g id="Border-12-2" transform="matrix(0.22804124,0,0,0.22804124,-2803.6191,1550.5106)">
	</g>
	<g id="Field-94-1" transform="matrix(0.22804124,0,0,0.22804124,-2763.3066,1571.7598)">
	</g>
	<g id="Trick-09-8" transform="matrix(0.22804124,0,0,0.22804124,-2763.3066,1571.7598)">
	</g>
	<g id="Border-51-3" transform="matrix(0.22804124,0,0,0.22804124,-2763.3066,1571.7598)">
	</g>
	<g id="Field-21-6" transform="matrix(0.22804124,0,0,0.22804124,-2780.7217,1642.9606)">
	</g>
	<g id="Trick-46-5" transform="matrix(0.22804124,0,0,0.22804124,-2780.7217,1642.9606)">
	</g>
	<g id="Border-0-0" transform="matrix(0.22804124,0,0,0.22804124,-2780.7217,1642.9606)">
	</g>
	<ellipse id="ellipse5679-0" fill="#191919" cx="35.875" cy="1098.645" rx="0" ry="0"/>
	<ellipse id="ellipse5683-1" fill="#FFFFFF" cx="35.875" cy="1098.536" rx="0" ry="0"/>
	<ellipse id="ellipse5749-7" fill="#191919" cx="50.859" cy="1098.318" rx="0" ry="0"/>
	<ellipse id="ellipse5753-0" fill="#FFFFFF" cx="50.859" cy="1098.318" rx="0" ry="0"/>
	<ellipse id="ellipse5819-6" fill="#191919" cx="43.259" cy="1111.674" rx="0" ry="0"/>
	<ellipse id="ellipse5823-7" fill="#FFFFFF" cx="43.259" cy="1111.564" rx="0" ry="0"/>
	<g id="Field-23-7" transform="matrix(0.22804124,0,0,0.22804124,-1000.9328,1463.3435)">
	</g>
	<g id="Trick-18-6" transform="matrix(0.22804124,0,0,0.22804124,-1000.9328,1463.3435)">
	</g>
	<g id="Border-74-7" transform="matrix(0.22804124,0,0,0.22804124,-1000.9328,1463.3435)">
	</g>
	<g id="Field-5-6-5" transform="matrix(0.22804124,0,0,0.22804124,-1018.67,1439.4428)">
	</g>
	<g id="Trick-0-3-5" transform="matrix(0.22804124,0,0,0.22804124,-1018.67,1439.4428)">
	</g>
	<g id="Border-7-8-3" transform="matrix(0.22804124,0,0,0.22804124,-1018.67,1439.4428)">
	</g>
	<g id="Field-3-5-8" transform="matrix(0.22804124,0,0,0.22804124,-1018.704,1462.627)">
	</g>
	<g id="Border-5-0-6" transform="matrix(0.22804124,0,0,0.22804124,-1018.704,1462.627)">
	</g>
	<g id="use3104-1-4" transform="matrix(0.22804124,0,0,0.22804124,-1018.654,1462.6408)">
	</g>
	<g id="Trick-4-2-2" transform="matrix(0.22804124,0,0,0.22804124,-1018.522,1462.5906)">
	</g>
	<g id="Field-2-4-9" transform="matrix(0.22804124,0,0,0.22804124,-1018.67,1485.8112)">
	</g>
	<g id="Trick-2-8-6" transform="matrix(0.22804124,0,0,0.22804124,-1018.67,1485.8112)">
	</g>
	<g id="Border-1-5-9" transform="matrix(0.22804124,0,0,0.22804124,-1018.67,1485.8112)">
	</g>
	<g id="Field-36-2-9" transform="matrix(0.22804124,0,0,0.22804124,-1018.67,1508.9954)">
	</g>
	<g id="Trick-08-5-9" transform="matrix(0.22804124,0,0,0.22804124,-1018.67,1508.9954)">
	</g>
	<g id="Border-8-2-2" transform="matrix(0.22804124,0,0,0.22804124,-1018.67,1508.9954)">
	</g>
	<g id="Field-9-9-9" transform="matrix(0.22804124,0,0,0.22804124,-1018.67,1532.1796)">
	</g>
	<g id="Trick-8-1-2" transform="matrix(0.22804124,0,0,0.22804124,-1018.67,1532.1796)">
	</g>
	<g id="Border-4-3-0" transform="matrix(0.22804124,0,0,0.22804124,-1018.67,1532.1796)">
	</g>
	<g id="Field-1-1-4" transform="matrix(0.22804124,0,0,0.22804124,-1000.6101,1530.2089)">
	</g>
	<g id="Trick-5-5-4" transform="matrix(0.22804124,0,0,0.22804124,-1000.6101,1530.2089)">
	</g>
	<g id="Border-9-2-8" transform="matrix(0.22804124,0,0,0.22804124,-1000.6101,1530.2089)">
	</g>
	<g id="Field-17-9-5" transform="matrix(0.22804124,0,0,0.22804124,-999.9651499999996,1507.9207)">
	</g>
	<g id="Trick-1-4-4" transform="matrix(0.22804124,0,0,0.22804124,-999.9651499999996,1507.9207)">
	</g>
	<g id="Border-99-4-5" transform="matrix(0.22804124,0,0,0.22804124,-999.9651499999996,1507.9207)">
	</g>
	<g id="Field-53-0-7" transform="matrix(0.22804124,0,0,0.22804124,-1039.31,1464.3476)">
	</g>
	<g id="Trick-12-7-5" transform="matrix(0.22804124,0,0,0.22804124,-1039.31,1464.3476)">
	</g>
	<g id="Border-12-4-2" transform="matrix(0.22804124,0,0,0.22804124,-1039.31,1464.3476)">
	</g>
	<g id="Field-94-7-7" transform="matrix(0.22804124,0,0,0.22804124,-998.9975699999996,1485.5968)">
	</g>
	<g id="Trick-09-9-4" transform="matrix(0.22804124,0,0,0.22804124,-998.9975699999996,1485.5968)">
	</g>
	<g id="Border-51-0-2" transform="matrix(0.22804124,0,0,0.22804124,-998.9975699999996,1485.5968)">
	</g>
	<g id="Field-21-2-6" transform="matrix(0.22804124,0,0,0.22804124,-1016.4126,1556.7976)">
	</g>
	<g id="Trick-46-2-0" transform="matrix(0.22804124,0,0,0.22804124,-1016.4126,1556.7976)">
	</g>
	<g id="Border-0-6-9" transform="matrix(0.22804124,0,0,0.22804124,-1016.4126,1556.7976)">
	</g>
	<path id="path4156-2" fill="#FFFFFF" d="M-539.92,590.5"/>
	<g id="g6335" transform="translate(-46.042457,-313.02307)">
		<path id="path6027" fill="#E9E9E9" stroke="#000000" stroke-width="0.3631" stroke-linecap="round" stroke-linejoin="round" d="
			M-296.066,1018.265c-5.64,6.483-15.091,13.225-25.941,17.13c-7.882-3.563-35.938-8.817-54.375-14.894
			c-12.611-4.155-18.442-5.062-18.826-8.891c-0.74-7.375,14.278-17.845,21.297-20.435l24.159,4.897l3.267,0.662l3.498,0.709
			l3.431,0.695l3.327,0.675l3.269,0.662l3.458,0.7l3.337,0.677l3.392,0.688l3.31,0.671l3.361,0.682l3.35,0.679l3.232,0.655
			l3.563,0.723l3.271,0.663l3.274,0.663l0.438,0.089l1.051,4.296l1.005,4.111L-296.066,1018.265z"/>
		<g id="g6320">
			<path id="path6031" fill="#E9E9E9" stroke="#000000" stroke-width="0.3631" stroke-linecap="round" stroke-linejoin="round" d="
				M-297.801,1010.649c-1.211,2.014-2.873,4.183-5.025,6.45c-5.625,5.927-14.189,12.534-24.339,16.526"/>
			<path id="path6035" fill="#E9E9E9" stroke="#000000" stroke-width="0.3631" stroke-linecap="round" stroke-linejoin="round" d="
				M-302.679,1005.538c-1.026,3.003-3.262,6.558-6.906,10.397c-5.427,5.718-13.59,12.068-23.273,16.094"/>
			<path id="path6039" fill="#E9E9E9" stroke="#000000" stroke-width="0.3631" stroke-linecap="round" stroke-linejoin="round" d="
				M-309.393,1004.235c-1.004,3.031-3.252,6.637-6.953,10.534c-5.274,5.558-13.133,11.713-22.461,15.75"/>
			<path id="path6043" fill="#E9E9E9" stroke="#000000" stroke-width="0.3631" stroke-linecap="round" stroke-linejoin="round" d="
				M-316.057,1002.77c-0.953,3.092-3.226,6.807-7.049,10.834c-5.149,5.426-12.761,11.421-21.798,15.459"/>
			<path id="path6047" fill="#E9E9E9" stroke="#000000" stroke-width="0.3631" stroke-linecap="round" stroke-linejoin="round" d="
				M-322.796,1001.538c-0.94,3.105-3.219,6.844-7.07,10.901c-5.002,5.271-12.329,11.079-21.028,15.108"/>
			<path id="path6051" fill="#E9E9E9" stroke="#000000" stroke-width="0.3631" stroke-linecap="round" stroke-linejoin="round" d="
				M-329.514,1000.228c-0.912,3.133-3.201,6.926-7.112,11.046c-4.838,5.099-11.852,10.699-20.179,14.707"/>
			<path id="path6055" fill="#E9E9E9" stroke="#000000" stroke-width="0.3631" stroke-linecap="round" stroke-linejoin="round" d="
				M-336.207,998.828c-0.864,3.178-3.169,7.058-7.178,11.281c-4.706,4.958-11.468,10.392-19.496,14.373"/>
			<path id="path6059" fill="#E9E9E9" stroke="#000000" stroke-width="0.3631" stroke-linecap="round" stroke-linejoin="round" d="
				M-342.901,997.41c-0.808,3.224-3.128,7.196-7.245,11.533c-4.543,4.788-11.004,10.019-18.671,13.958"/>
			<path id="path6063" fill="#E9E9E9" stroke="#000000" stroke-width="0.3631" stroke-linecap="round" stroke-linejoin="round" d="
				M-349.607,996.023c-0.756,3.263-3.087,7.318-7.298,11.756c-4.306,4.537-10.336,9.474-17.481,13.33"/>
			<path id="path6067" fill="#E9E9E9" stroke="#000000" stroke-width="0.3631" stroke-linecap="round" stroke-linejoin="round" d="
				M-356.327,994.677c-0.711,3.293-3.05,7.417-7.338,11.936c-4.091,4.312-9.739,8.982-16.42,12.745"/>
			<path id="path6071" fill="#E9E9E9" stroke="#000000" stroke-width="0.3631" stroke-linecap="round" stroke-linejoin="round" d="
				M-363.042,993.293c-0.652,3.328-2.999,7.536-7.384,12.156c-3.869,4.076-9.129,8.475-15.34,12.123"/>
			<path id="path6075" fill="#E9E9E9" stroke="#000000" stroke-width="0.3631" stroke-linecap="round" stroke-linejoin="round" d="
				M-369.773,991.978c-0.611,3.351-2.961,7.615-7.412,12.305c-3.598,3.791-8.399,7.861-14.05,11.347"/>
			<path id="path6079" fill="#E9E9E9" stroke="#000000" stroke-width="0.3631" stroke-linecap="round" stroke-linejoin="round" d="
				M-376.99,992.578c-1.003,3.032-3.252,6.64-6.955,10.539c-2.941,3.101-6.688,6.387-11.044,9.387"/>
		</g>
	</g>
	<g id="g6179" transform="translate(-46.042457,-313.02307)">
		<path id="path5907" fill="#E9E9E9" stroke="#000000" stroke-width="0.3631" stroke-linecap="round" stroke-linejoin="round" d="
			M-490.49,926.97c31.967,0.747,60.377,24.628,90.815,34.304l0.809,15.568l0.729,14.609c-30.438,9.677-60.386,34.517-92.353,35.264
			c-2.019-12.78,34.236-38.689,35.046-49.873C-456.254,965.66-492.508,939.75-490.49,926.97z"/>
		<path id="path6265" fill="#E9E9E9" stroke="#000000" stroke-width="0.3631" stroke-linecap="round" stroke-linejoin="round" d="
			M-487.787,935.623c29.41,1.875,58.065,19.136,86.08,29.23"/>
		<path id="path6269" fill="#E9E9E9" stroke="#000000" stroke-width="0.3631" stroke-linecap="round" stroke-linejoin="round" d="
			M-480.94,944.929c26.012,4.176,52.18,14.126,77.26,23.636"/>
		<path id="path6273" fill="#E9E9E9" stroke="#000000" stroke-width="0.3631" stroke-linecap="round" stroke-linejoin="round" d="
			M-470.909,955.719c23.129,6.602,43.15,8.564,65.949,16.636"/>
		<path id="path6279" fill="#E9E9E9" stroke="#000000" stroke-width="0.3631" stroke-linecap="round" stroke-linejoin="round" d="
			M-460.031,967.973c18.386,7.233,35.767,3.329,54.099,8.144"/>
		<path id="path6306" fill="#E9E9E9" stroke="#000000" stroke-width="0.3631" stroke-linecap="round" stroke-linejoin="round" d="
			M-487.787,1018.064c29.41-1.876,58.671-19.437,86.686-29.531"/>
		<path id="path6310" fill="#E9E9E9" stroke="#000000" stroke-width="0.3631" stroke-linecap="round" stroke-linejoin="round" d="
			M-480.94,1008.756c26.012-4.176,52.18-14.126,77.26-23.637"/>
		<path id="path6314" fill="#E9E9E9" stroke="#000000" stroke-width="0.3631" stroke-linecap="round" stroke-linejoin="round" d="
			M-470.909,997.966c23.129-6.602,43.15-8.565,65.949-16.635"/>
		<path id="path6318" fill="#E9E9E9" stroke="#000000" stroke-width="0.3631" stroke-linecap="round" stroke-linejoin="round" d="
			M-460.031,985.712c18.386-7.232,35.969-3.062,54.301-7.876"/>
	</g>
	<path id="path5915" fill="#E9E9E9" stroke="#000000" stroke-width="0.3631" stroke-linecap="round" stroke-linejoin="round" d="
		M-239.455,620.353c-5.571-9.233-15.807-19.602-28.394-26.753c-10.539,2.73-46.433,3.248-70.594,6.837
		c-16.525,2.455-23.945,2.332-25.256,6.993c-2.525,8.977,13.792,25.149,21.921,29.854l30.989-0.907l4.19-0.123l4.487-0.131
		l4.401-0.129l4.267-0.125l4.193-0.123l4.436-0.13l4.281-0.125l4.35-0.128l4.247-0.124l4.311-0.127l4.297-0.126l4.146-0.121
		l4.571-0.134l4.195-0.123l4.2-0.123l0.562-0.016l2.239-5.097l2.143-4.877L-239.455,620.353z"/>
	<g id="g6247" transform="translate(-46.042457,-313.02307)">
		<path id="path5973" fill="#E9E9E9" stroke="#000000" stroke-width="0.3631" stroke-linecap="round" stroke-linejoin="round" d="
			M-197.223,942.439c-1.06-2.754-2.645-5.794-4.816-9.062c-5.674-8.541-14.84-18.553-26.54-25.664"/>
		<path id="path5977" fill="#E9E9E9" stroke="#000000" stroke-width="0.3631" stroke-linecap="round" stroke-linejoin="round" d="
			M-204.379,947.727c-0.616-3.938-2.61-8.817-6.286-14.351c-5.474-8.24-14.199-17.85-25.314-24.903"/>
		<path id="path5981" fill="#E9E9E9" stroke="#000000" stroke-width="0.3631" stroke-linecap="round" stroke-linejoin="round" d="
			M-212.979,947.908c-0.583-3.969-2.581-8.914-6.314-14.532c-5.32-8.009-13.711-17.311-24.383-24.302"/>
		<path id="path5985" fill="#E9E9E9" stroke="#000000" stroke-width="0.3631" stroke-linecap="round" stroke-linejoin="round" d="
			M-221.552,948.299c-0.505-4.033-2.511-9.118-6.367-14.923c-5.194-7.818-13.314-16.869-23.626-23.8"/>
		<path id="path5989" fill="#E9E9E9" stroke="#000000" stroke-width="0.3631" stroke-linecap="round" stroke-linejoin="round" d="
			M-230.168,948.387c-0.487-4.046-2.494-9.164-6.378-15.012c-5.045-7.596-12.854-16.354-22.749-23.201"/>
		<path id="path5993" fill="#E9E9E9" stroke="#000000" stroke-width="0.3631" stroke-linecap="round" stroke-linejoin="round" d="
			M-238.772,948.576c-0.446-4.075-2.455-9.262-6.399-15.199c-4.88-7.348-12.345-15.782-21.784-22.523"/>
		<path id="path5997" fill="#E9E9E9" stroke="#000000" stroke-width="0.3631" stroke-linecap="round" stroke-linejoin="round" d="
			M-247.369,948.88c-0.377-4.12-2.386-9.417-6.43-15.504c-4.747-7.146-11.937-15.319-21.011-21.965"/>
		<path id="path6001" fill="#E9E9E9" stroke="#000000" stroke-width="0.3631" stroke-linecap="round" stroke-linejoin="round" d="
			M-255.968,949.209c-0.298-4.166-2.305-9.582-6.457-15.832c-4.583-6.899-11.444-14.758-20.08-21.272"/>
		<path id="path6005" fill="#E9E9E9" stroke="#000000" stroke-width="0.3631" stroke-linecap="round" stroke-linejoin="round" d="
			M-264.577,949.493c-0.225-4.202-2.228-9.724-6.475-16.116c-4.343-6.539-10.734-13.94-18.743-20.242"/>
		<path id="path6009" fill="#E9E9E9" stroke="#000000" stroke-width="0.3631" stroke-linecap="round" stroke-linejoin="round" d="
			M-273.193,949.726c-0.162-4.23-2.159-9.838-6.485-16.35c-4.127-6.213-10.102-13.204-17.557-19.291"/>
		<path id="path6013" fill="#E9E9E9" stroke="#000000" stroke-width="0.3631" stroke-linecap="round" stroke-linejoin="round" d="
			M-281.811,950.007c-0.082-4.262-2.071-9.974-6.494-16.631c-3.903-5.876-9.458-12.446-16.354-18.291"/>
		<path id="path6017" fill="#E9E9E9" stroke="#000000" stroke-width="0.3631" stroke-linecap="round" stroke-linejoin="round" d="
			M-290.435,950.199c-0.027-4.281-2.007-10.065-6.496-16.823c-3.63-5.464-8.688-11.529-14.926-17.053"/>
		<path id="path6021" fill="#E9E9E9" stroke="#000000" stroke-width="0.3631" stroke-linecap="round" stroke-linejoin="round" d="
			M-299.243,947.915c-0.582-3.97-2.581-8.917-6.315-14.538c-2.967-4.468-6.89-9.337-11.631-13.982"/>
	</g>
	<path id="path5884" fill="#E9E9E9" stroke="#000000" stroke-width="0.3631" stroke-linecap="round" stroke-linejoin="round" d="
		M-185,644.87c-17.014,4.974-31.755,24.784-22.854,45.428c3.288,7.628,8.064,24.71,23.002,21.538"/>
	<path id="path5886" fill="#E9E9E9" stroke="#000000" stroke-width="0.3631" stroke-linecap="round" stroke-linejoin="round" d="
		M-167.072,662.206c0.005,3.461,3.028,6.263,6.75,6.257c3.714-0.005,6.723-2.804,6.729-6.257c0.006-3.462-3.006-6.272-6.729-6.278
		c-3.722-0.005-6.745,2.797-6.75,6.258C-167.072,662.192-167.072,662.199-167.072,662.206z"/>
	<g id="g6370" transform="translate(-44.042457,-313.02307)">
		<g id="g6363">
			<path id="path6115" fill="#E9E9E9" stroke="#000000" stroke-width="0.3631" stroke-linecap="round" stroke-linejoin="round" d="
				M-191.201,1043.47c-4.41-1.993-17.066-4.948-28.887-7.848c-3.637-1.611,13.519-8.839,20.244-17.483
				c7.153-4.479,7.805-7.382,12.532-7.455l2.014,0.281l3.349,0.679l3.233,0.655l3.563,0.722l3.271,0.664l3.274,0.663l0.438,0.089
				l1.051,4.296C-162.922,1031.232-181.295,1039.623-191.201,1043.47L-191.201,1043.47z"/>
			<path id="path6119" fill="#E9E9E9" stroke="#000000" stroke-width="0.3631" stroke-linecap="round" stroke-linejoin="round" d="
				M-167.668,1016.291c-1.211,2.014-2.199,6.616-4.351,8.885c-5.625,5.926-14.189,12.533-24.339,16.525"/>
			<path id="path6123" fill="#E9E9E9" stroke="#000000" stroke-width="0.3631" stroke-linecap="round" stroke-linejoin="round" d="
				M-171.873,1013.614c-1.026,3.002-3.262,6.557-6.907,10.396c-5.427,5.718-13.589,12.069-23.273,16.095"/>
			<path id="path6127" fill="#E9E9E9" stroke="#000000" stroke-width="0.3631" stroke-linecap="round" stroke-linejoin="round" d="
				M-177.339,1012.611c-1.004,3.03-4.5,6.336-8.2,10.234c-5.274,5.557-13.134,11.712-22.461,15.75"/>
			<path id="path6131" fill="#E9E9E9" stroke="#000000" stroke-width="0.3631" stroke-linecap="round" stroke-linejoin="round" d="
				M-182.689,1011.512c-0.952,3.092-5.787,6.14-9.609,10.167c-5.149,5.426-12.762,11.421-21.798,15.459"/>
		</g>
		<path id="path6135" fill="#E9E9E9" stroke="#000000" stroke-width="0.3631" stroke-linecap="round" stroke-linejoin="round" d="
			M-186.969,1010.547c-0.94,3.104-8.24,5.91-12.09,9.969c-5.002,5.27-12.329,11.078-21.029,15.107"/>
	</g>
	<path id="path6261" stroke="#000000" stroke-width="0.3631" stroke-linecap="round" stroke-linejoin="round" d="M-162.965,662.018
		c0,2.117,1.846,3.834,4.123,3.834c2.277,0,4.123-1.717,4.123-3.834l0,0c0-2.118-1.846-3.835-4.123-3.835
		C-161.119,658.183-162.965,659.899-162.965,662.018z"/>
	<line fill="none" x1="-1107.338" y1="771.361" x2="-1018.649" y2="841.931"/>
	<g id="C97ZuB.tif">
		<path fill-rule="evenodd" clip-rule="evenodd" fill="#AA840C" d="M1002.63,140.439c-23.559,11.881,5.823,48.84-10.868,62.906
			c-16.694,14.07-36.9-11.631-51.736-8.967c-27.408,4.91-44.921,22.543-47.51-26.658c-0.814-15.469-43.062,22.713-43.062-22.19
			c0-22.956-16.5-33.361-7.518-52.75c19.735-42.601,22.24-72.117,54.818-45.107c19.09,15.828,21.079-29.789,72.656-26.564
			c52.086,3.258,31.04,27.668,33.415,55.483C1004.615,97.576,1043.656,119.753,1002.63,140.439z"/>
	</g>
	
		<ellipse fill-rule="evenodd" clip-rule="evenodd" fill="#FFEB33" stroke="#32EA0C" stroke-width="7" stroke-miterlimit="10" cx="751.557" cy="108.708" rx="53.11" ry="47.208"/>
</g>
<g id="Layer_2">
</g>
</svg>
